<?xml version="1.0" encoding="UTF-8" standalone="no"?>
<!DOCTYPE svg PUBLIC "-//W3C//DTD SVG 1.1//EN"
 "http://www.w3.org/Graphics/SVG/1.1/DTD/svg11.dtd">
<!-- Generated by graphviz version 2.43.0 (0)
 -->
<!-- Title: %3 Pages: 1 -->
<svg width="771pt" height="647pt"
 viewBox="0.00 0.00 771.00 647.00" xmlns="http://www.w3.org/2000/svg" xmlns:xlink="http://www.w3.org/1999/xlink">
<g id="graph0" class="graph" transform="scale(1 1) rotate(0) translate(4 643)">
<title>%3</title>
<polygon fill="white" stroke="transparent" points="-4,4 -4,-643 767,-643 767,4 -4,4"/>
<!-- fake -->
<g id="node1" class="node">
<title>fake</title>
</g>
<!-- 7 -->
<g id="node9" class="node">
<title>7</title>
<ellipse fill="none" stroke="black" cx="392" cy="-548" rx="27" ry="18"/>
<text text-anchor="middle" x="392" y="-544.3" font-family="Times,serif" font-size="14.00">7</text>
</g>
<!-- fake&#45;&gt;7 -->
<g id="edge1" class="edge">
<title>fake&#45;&gt;7</title>
<path fill="none" stroke="black" stroke-width="2" d="M392,-602.81C392,-594.79 392,-585.05 392,-576.07"/>
<polygon fill="black" stroke="black" stroke-width="2" points="395.5,-576.03 392,-566.03 388.5,-576.03 395.5,-576.03"/>
</g>
<!-- 0 -->
<g id="node2" class="node">
<title>0</title>
<ellipse fill="none" stroke="black" cx="468" cy="-621" rx="27" ry="18"/>
<text text-anchor="middle" x="468" y="-617.3" font-family="Times,serif" font-size="14.00">0</text>
</g>
<!-- 1 -->
<g id="node3" class="node">
<title>1</title>
<ellipse fill="none" stroke="black" cx="392" cy="-461" rx="27" ry="18"/>
<text text-anchor="middle" x="392" y="-457.3" font-family="Times,serif" font-size="14.00">1</text>
</g>
<!-- 2 -->
<g id="node4" class="node">
<title>2</title>
<ellipse fill="none" stroke="black" cx="392" cy="-374" rx="27" ry="18"/>
<text text-anchor="middle" x="392" y="-370.3" font-family="Times,serif" font-size="14.00">2</text>
</g>
<!-- 1&#45;&gt;2 -->
<g id="edge12" class="edge">
<title>1&#45;&gt;2</title>
<path fill="none" stroke="black" d="M392,-442.8C392,-431.16 392,-415.55 392,-402.24"/>
<polygon fill="black" stroke="black" points="395.5,-402.18 392,-392.18 388.5,-402.18 395.5,-402.18"/>
<text text-anchor="middle" x="446.5" y="-413.8" font-family="Times,serif" font-size="14.00">press_button_2</text>
</g>
<!-- 3 -->
<g id="node5" class="node">
<title>3</title>
<ellipse fill="none" stroke="black" cx="229" cy="-287" rx="27" ry="18"/>
<text text-anchor="middle" x="229" y="-283.3" font-family="Times,serif" font-size="14.00">3</text>
</g>
<!-- 2&#45;&gt;3 -->
<g id="edge4" class="edge">
<title>2&#45;&gt;3</title>
<path fill="none" stroke="black" d="M364.88,-373.13C309.45,-372.74 186.17,-368.41 160,-338 145.75,-321.44 170.9,-307.35 194.73,-298.39"/>
<polygon fill="black" stroke="black" points="196.13,-301.61 204.4,-294.98 193.8,-295 196.13,-301.61"/>
<text text-anchor="middle" x="222.5" y="-326.8" font-family="Times,serif" font-size="14.00">press_button_3_1</text>
</g>
<!-- 4 -->
<g id="node6" class="node">
<title>4</title>
<ellipse fill="none" stroke="black" cx="407" cy="-113" rx="27" ry="18"/>
<text text-anchor="middle" x="407" y="-109.3" font-family="Times,serif" font-size="14.00">4</text>
</g>
<!-- 2&#45;&gt;4 -->
<g id="edge13" class="edge">
<title>2&#45;&gt;4</title>
<path fill="none" stroke="black" d="M417.32,-367.71C433.42,-362.89 453.06,-353.99 463,-338 474.09,-320.17 473.18,-167.37 463,-149 457.79,-139.6 448.89,-132.39 439.69,-127.03"/>
<polygon fill="black" stroke="black" points="441.01,-123.77 430.53,-122.27 437.79,-129.98 441.01,-123.77"/>
<text text-anchor="middle" x="532.5" y="-239.8" font-family="Times,serif" font-size="14.00">press_button_3_2</text>
</g>
<!-- 3&#45;&gt;2 -->
<g id="edge7" class="edge">
<title>3&#45;&gt;2</title>
<path fill="none" stroke="black" d="M248.24,-299.9C259.07,-306.63 272.82,-315.23 285,-323 295.29,-329.57 297.21,-332.3 308,-338 324.42,-346.68 343.48,-354.77 359.29,-360.99"/>
<polygon fill="black" stroke="black" points="358.07,-364.27 368.66,-364.6 360.59,-357.73 358.07,-364.27"/>
<text text-anchor="middle" x="385.5" y="-326.8" font-family="Times,serif" font-size="14.00">not_press_button_3_1</text>
</g>
<!-- 5 -->
<g id="node7" class="node">
<title>5</title>
<ellipse fill="none" stroke="black" cx="159" cy="-200" rx="27" ry="18"/>
<text text-anchor="middle" x="159" y="-196.3" font-family="Times,serif" font-size="14.00">5</text>
</g>
<!-- 3&#45;&gt;5 -->
<g id="edge2" class="edge">
<title>3&#45;&gt;5</title>
<path fill="none" stroke="black" d="M201.71,-286C175.23,-284.37 136.31,-277.26 117,-251 108.63,-239.61 118.37,-227.46 130.58,-217.98"/>
<polygon fill="black" stroke="black" points="132.64,-220.81 138.78,-212.18 128.6,-215.09 132.64,-220.81"/>
<text text-anchor="middle" x="179.5" y="-239.8" font-family="Times,serif" font-size="14.00">press_button_3_2</text>
</g>
<!-- 4&#45;&gt;2 -->
<g id="edge10" class="edge">
<title>4&#45;&gt;2</title>
<path fill="none" stroke="black" d="M432.58,-119.25C493.66,-133.1 640.23,-174.93 603,-251 569.41,-319.62 478.24,-352.14 427.42,-365.34"/>
<polygon fill="black" stroke="black" points="426.38,-361.99 417.52,-367.8 428.07,-368.78 426.38,-361.99"/>
<text text-anchor="middle" x="685.5" y="-239.8" font-family="Times,serif" font-size="14.00">not_press_button_3_2</text>
</g>
<!-- 4&#45;&gt;5 -->
<g id="edge6" class="edge">
<title>4&#45;&gt;5</title>
<path fill="none" stroke="black" d="M385.54,-124.14C371.76,-130.83 353.59,-140 338,-149 327.43,-155.1 326.24,-159.26 315,-164 275.89,-180.5 227.83,-189.78 195.47,-194.57"/>
<polygon fill="black" stroke="black" points="194.96,-191.11 185.55,-195.98 195.94,-198.04 194.96,-191.11"/>
<text text-anchor="middle" x="400.5" y="-152.8" font-family="Times,serif" font-size="14.00">press_button_3_1</text>
</g>
<!-- 5&#45;&gt;3 -->
<g id="edge9" class="edge">
<title>5&#45;&gt;3</title>
<path fill="none" stroke="black" d="M185.21,-204.38C204.5,-208.39 229.46,-217.11 242,-236 246.85,-243.31 246.1,-252.32 243.32,-260.68"/>
<polygon fill="black" stroke="black" points="240.03,-259.47 239.34,-270.04 246.47,-262.21 240.03,-259.47"/>
<text text-anchor="middle" x="323.5" y="-239.8" font-family="Times,serif" font-size="14.00">not_press_button_3_2</text>
</g>
<!-- 5&#45;&gt;4 -->
<g id="edge8" class="edge">
<title>5&#45;&gt;4</title>
<path fill="none" stroke="black" d="M152.52,-182.22C149.57,-171.48 148.24,-157.92 156,-149 183.24,-117.7 306.56,-113.52 369.62,-113.49"/>
<polygon fill="black" stroke="black" points="369.92,-116.99 379.93,-113.52 369.94,-109.99 369.92,-116.99"/>
<text text-anchor="middle" x="233.5" y="-152.8" font-family="Times,serif" font-size="14.00">not_press_button_3_1</text>
</g>
<!-- 8 -->
<g id="node10" class="node">
<title>8</title>
<ellipse fill="none" stroke="black" cx="27" cy="-113" rx="27" ry="18"/>
<text text-anchor="middle" x="27" y="-109.3" font-family="Times,serif" font-size="14.00">8</text>
</g>
<!-- 5&#45;&gt;8 -->
<g id="edge5" class="edge">
<title>5&#45;&gt;8</title>
<path fill="none" stroke="black" d="M132.65,-195.7C98.23,-190.79 40.82,-180.35 28,-164 23.01,-157.63 21.52,-149.28 21.64,-141.23"/>
<polygon fill="black" stroke="black" points="25.15,-141.28 22.57,-131.01 18.18,-140.65 25.15,-141.28"/>
<text text-anchor="middle" x="82.5" y="-152.8" font-family="Times,serif" font-size="14.00">press_button_3</text>
</g>
<!-- 6 -->
<g id="node8" class="node">
<title>6</title>
<ellipse fill="none" stroke="black" cx="27" cy="-22" rx="18" ry="18"/>
<ellipse fill="none" stroke="black" cx="27" cy="-22" rx="22" ry="22"/>
<text text-anchor="middle" x="27" y="-18.3" font-family="Times,serif" font-size="14.00">6</text>
</g>
<!-- 7&#45;&gt;1 -->
<g id="edge3" class="edge">
<title>7&#45;&gt;1</title>
<path fill="none" stroke="black" d="M392,-529.8C392,-518.16 392,-502.55 392,-489.24"/>
<polygon fill="black" stroke="black" points="395.5,-489.18 392,-479.18 388.5,-489.18 395.5,-489.18"/>
<text text-anchor="middle" x="446.5" y="-500.8" font-family="Times,serif" font-size="14.00">press_button_1</text>
</g>
<!-- 8&#45;&gt;6 -->
<g id="edge11" class="edge">
<title>8&#45;&gt;6</title>
<path fill="none" stroke="black" d="M27,-94.84C27,-83.44 27,-68.13 27,-54.58"/>
<polygon fill="black" stroke="black" points="30.5,-54.19 27,-44.19 23.5,-54.19 30.5,-54.19"/>
<text text-anchor="middle" x="72.5" y="-65.8" font-family="Times,serif" font-size="14.00">press_target</text>
</g>
</g>
</svg>
